<?xml version="1.0" encoding="UTF-8"?>
<svg id="Layer_1" xmlns="http://www.w3.org/2000/svg" version="1.1" viewBox="0 0 1800 1800">
  <!-- Generator: Adobe Illustrator 30.0.0, SVG Export Plug-In . SVG Version: 2.1.1 Build 123)  -->
  <defs>
    <style>
      .st0 {
        fill: #ff4d4d;
      }
    </style>
  </defs>
  <path class="st0" d="M1430,370.02c-30.34-30.34-380.65-38.57-591.64,172.43-49.32,49.32-91.5,101.29-125.81,153.54l-158.02,6.79-200.52,200.51,256.08,70.35c-2.12,64.26,15.48,120.09,55.82,160.44,40.34,40.34,96.18,57.96,160.44,55.82l70.35,256.08,200.52-200.52,6.79-158.02c52.25-34.31,104.22-76.5,153.54-125.81,211-210.97,202.78-561.29,172.43-591.62h.02ZM1240.59,694.51c-37.31,37.31-97.79,37.31-135.09,0-37.31-37.31-37.31-97.79,0-135.09,37.31-37.31,97.79-37.31,135.09,0,37.31,37.3,37.31,97.79,0,135.09h0Z"/>
  <path class="st0" d="M614.14,1301.8c44.04-44.04,49.45-98.46,16.01-131.91-33.45-33.45-87.86-28.03-131.91,16.01-58.33,58.33-87.73,186.85-79.34,195.24,8.39,8.4,136.91-21,195.25-79.33h-.01Z"/>
</svg>